<?xml version="1.0" encoding="UTF-8" standalone="no"?>
<svg
   version="1.0"
   width="900pt"
   height="600pt"
   viewBox="0 0 900 600"
   preserveAspectRatio="xMidYMid"
   id="svg1"
   sodipodi:docname="golden-gate-bg.svg"
   inkscape:version="1.3 (0e150ed6c4, 2023-07-21)"
   inkscape:export-filename="golden-gate-bg.png"
   inkscape:export-xdpi="204.8"
   inkscape:export-ydpi="204.8"
   xmlns:inkscape="http://www.inkscape.org/namespaces/inkscape"
   xmlns:sodipodi="http://sodipodi.sourceforge.net/DTD/sodipodi-0.dtd"
   xmlns="http://www.w3.org/2000/svg"
   xmlns:svg="http://www.w3.org/2000/svg">
  <defs
     id="defs1" />
  <sodipodi:namedview
     id="namedview1"
     pagecolor="#ffffff"
     bordercolor="#666666"
     borderopacity="1.0"
     inkscape:showpageshadow="2"
     inkscape:pageopacity="0.0"
     inkscape:pagecheckerboard="0"
     inkscape:deskcolor="#d1d1d1"
     inkscape:document-units="pt"
     inkscape:zoom="0.58223684"
     inkscape:cx="722.21469"
     inkscape:cy="474.0339"
     inkscape:window-width="1778"
     inkscape:window-height="1346"
     inkscape:window-x="0"
     inkscape:window-y="0"
     inkscape:window-maximized="1"
     inkscape:current-layer="svg1" />
  <rect
     style="fill:#e1f3fb;fill-opacity:1;stroke-width:18;stroke-opacity:0.487601"
     id="rect1"
     width="1125.3152"
     height="687.37659"
     x="-43.157574"
     y="-39.688293" />
  <g
     transform="matrix(0.1,0,0,-0.1,-139,599)"
     fill="#000000"
     stroke="none"
     id="g1"
     style="fill:#922c00;fill-opacity:0.24088542">
    <path
       d="m 3867,5953 c -9,-2 -28,-23 -42,-46 -37,-64 -106,-127 -151,-138 -69,-16 -94,-12 -94,14 0,29 -18,47 -46,47 -30,0 -48,-25 -41,-58 l 6,-29 -81,-9 c -74,-9 -81,-8 -94,10 -8,11 -14,27 -14,35 0,24 -50,81 -71,81 -10,0 -103,-65 -207,-144 C 2320,5170 1592,4710 323,4004 L 0,3825 v -37 -37 l 112,63 c 62,35 128,71 146,80 l 32,17 V 3741 3572 L 147,3507 C 5,3442 5,3442 2,3406 c -2,-20 -1,-36 2,-36 2,0 25,9 50,20 l 46,19 V 2700 1990 H 50 0 v -202 -201 l 177,7 c 369,15 1465,23 2183,15 410,-4 746,-7 747,-8 3,-1 -2,-400 -12,-1098 l -5,-333 h 145 145 v 80 80 h 195 195 v -80 -80 h 146 146 l -6,98 c -3,53 -8,277 -11,497 -3,220 -8,494 -12,609 l -6,209 294,-7 c 1922,-45 4230,-170 5137,-279 l 103,-12 -1,-332 -1,-333 h 56 55 v 90 90 h 80 80 v -90 -90 h 55 56 l -7,309 -7,309 24,-4 c 158,-25 373,-71 423,-90 14,-5 16,6 16,84 0,87 -1,90 -25,96 -22,6 -25,11 -24,54 l 1,47 23,-50 24,-50 v 79 c 1,76 -2,88 -89,312 -197,511 -324,908 -380,1186 -18,89 -49,101 -85,33 -21,-42 -22,-42 -147,-58 -36,-5 -48,-3 -48,7 0,32 -32,76 -55,76 -20,0 -33,-20 -93,-142 -142,-287 -286,-499 -472,-692 -252,-260 -501,-408 -813,-481 -51,-12 -66,-11 -135,5 -298,72 -661,259 -1017,525 -651,485 -1431,1342 -2290,2515 -370,506 -815,1151 -816,1184 -1,29 -32,81 -50,82 -8,1 -22,0 -32,-3 z m -725,-443 -5,-205 -43,-32 c -24,-18 -46,-33 -49,-33 -7,0 -4,350 3,388 4,19 90,99 97,90 1,-2 0,-95 -3,-208 z m 916,-315 c 2,-214 2,-410 0,-435 l -3,-45 -38,51 c -45,62 -44,52 -52,589 l -6,370 48,-70 48,-70 z m -1038,223 -1,-203 -86,-60 c -48,-33 -91,-61 -95,-63 -4,-2 -8,86 -8,195 v 198 l 88,67 c 48,36 90,67 95,67 4,1 7,-90 7,-201 z m 1135,22 68,-100 5,-420 c 3,-231 2,-420 -1,-420 -3,0 -38,41 -76,91 l -71,92 v 428 c 0,236 1,429 3,429 2,0 34,-45 72,-100 z m -481,44 c 3,-26 6,-92 6,-148 0,-85 -2,-98 -14,-86 -31,34 -178,251 -173,256 3,3 39,9 79,14 40,4 78,8 84,9 6,0 14,-20 18,-45 z m 99,18 27,-29 -2,-202 -3,-203 -47,65 -48,65 v 166 166 h 23 c 13,0 35,-13 50,-28 z m -428,-37 c -22,-18 -42,-32 -44,-29 -8,8 52,64 68,64 10,-1 1,-14 -24,-35 z m -545,-205 v -199 l -90,-61 c -49,-33 -92,-60 -96,-60 -13,0 6,394 19,402 7,4 46,32 87,62 41,31 76,56 78,56 1,0 2,-90 2,-200 z m 690,-91 v -217 l -29,-4 c -28,-4 -28,-4 -35,61 -8,92 -8,426 1,435 4,4 20,-8 35,-26 l 27,-33 z m -83,-225 c -2,-2 -24,-7 -49,-10 l -46,-6 -4,203 -5,204 51,47 51,47 3,-241 c 1,-132 1,-243 -1,-244 z m 161,324 c 32,-46 32,-48 32,-173 0,-92 -3,-127 -12,-129 -7,-3 -30,-7 -50,-10 l -38,-5 v 206 c 0,231 -6,221 68,111 z m -978,-155 v -198 l -89,-57 c -49,-32 -92,-58 -95,-58 -8,0 -6,295 2,347 7,40 13,47 92,102 47,33 86,60 88,61 1,0 2,-89 2,-197 z m 1737,80 68,-98 3,-410 c 2,-353 1,-408 -11,-395 -8,8 -42,50 -76,93 l -61,78 v 415 c 0,228 2,414 4,414 3,0 35,-44 73,-97 z m -1195,-823 -9,-685 -1,761 c -1,418 1,764 6,768 12,12 12,-122 4,-844 z m 517,785 c 29,-41 32,-50 29,-112 l -3,-68 -32,-3 -33,-3 v 115 c 0,64 1,116 3,116 2,0 18,-20 36,-45 z m -550,-1667 1,-1568 h -47 -46 l 7,688 c 3,378 11,1103 17,1612 l 10,925 22,19 22,18 6,-63 c 4,-35 7,-769 8,-1631 z m -719,1482 v -191 l -100,-64 c -55,-36 -102,-65 -106,-65 -12,0 7,384 19,392 7,4 48,32 92,62 44,30 83,55 88,55 4,1 7,-85 7,-189 z m 630,-751 c -5,-497 -12,-1050 -15,-1229 -2,-179 -5,-490 -5,-692 v -368 h -50 -50 v 1558 l 1,1557 61,42 c 34,24 63,41 65,40 1,-2 -2,-410 -7,-908 z m 746,769 c -6,-4 -21,-8 -33,-8 -21,0 -23,5 -23,51 v 52 l 34,-44 c 22,-30 30,-46 22,-51 z m 740,-35 69,-98 3,-395 2,-395 -30,35 c -17,19 -50,59 -73,89 l -42,54 -4,404 c -1,221 -1,403 1,403 3,0 36,-44 74,-97 z M 2860,3475 c 0,-1367 -2,-1545 -15,-1545 -13,0 -15,177 -15,1533 0,1492 1,1557 27,1557 2,0 3,-695 3,-1545 z m -710,1346 v -189 l -87,-55 c -49,-30 -94,-57 -100,-61 -10,-6 -13,33 -13,181 l 1,188 97,62 c 53,34 98,63 100,63 1,0 2,-85 2,-189 z m 646,-2888 c -2,-2 -31,-1 -65,3 l -61,7 v 1473 1473 l 63,43 62,44 3,-1520 c 1,-835 0,-1521 -2,-1523 z m -156,1472 c 0,-1296 -2,-1465 -15,-1465 -13,0 -15,168 -15,1453 0,1414 1,1477 27,1477 2,0 3,-659 3,-1465 z m -720,1268 -1,-188 -103,-62 c -57,-35 -107,-63 -110,-63 -3,0 -6,83 -6,184 v 183 l 107,67 c 60,36 109,66 110,66 2,0 3,-84 3,-187 z m 670,-1257 c 0,-777 -3,-1428 -6,-1446 l -7,-32 -76,6 c -41,4 -77,9 -80,11 -5,6 19,2722 25,2760 3,23 18,39 67,72 34,23 65,42 70,42 4,1 7,-635 7,-1413 z m 2057,1327 48,-68 3,-385 c 2,-235 0,-381 -6,-375 -5,6 -30,36 -56,68 l -46,58 v 384 c 0,212 2,385 4,385 3,0 27,-30 53,-67 z M 2411,3368 c -7,-739 -15,-1347 -17,-1353 -2,-5 -1,598 2,1340 3,743 8,1354 11,1358 3,5 7,6 10,3 3,-3 0,-610 -6,-1348 z m -741,1154 v -188 l -112,-66 -113,-66 -3,126 c -2,70 0,154 3,187 l 6,60 107,67 c 59,36 108,66 110,67 1,1 2,-84 2,-187 z m 705,-1154 c -3,-733 -8,-1352 -11,-1376 l -5,-43 -82,3 -82,3 -3,1310 -2,1310 92,62 c 51,34 94,62 96,62 2,1 0,-599 -3,-1331 z m 1654,1275 32,-43 9,-952 c 5,-524 9,-1139 10,-1365 v -413 h -25 c -14,0 -25,6 -25,13 0,6 -11,611 -25,1342 -28,1511 -28,1482 -17,1470 5,-6 23,-29 41,-52 z m -264,17 c 8,-16 15,-40 15,-54 0,-14 5,-28 10,-31 6,-3 8,-30 6,-58 -2,-29 -4,-134 -5,-234 l -1,-183 h -45 -45 v 289 c 0,308 -2,293 42,300 4,0 14,-12 23,-29 z m -85,-275 v -295 h -35 -35 v 289 c 0,306 -1,299 48,300 l 22,1 z m -80,-4 v -288 l -41,-7 c -23,-4 -43,-5 -44,-4 -2,2 -5,132 -7,290 -3,316 -8,294 60,297 l 32,1 z m -110,202 c 0,-43 3,-174 7,-290 l 6,-213 h -36 -37 v 290 290 h 30 30 z m -72,-217 c 2,-217 -1,-281 -10,-288 -7,-4 -30,-8 -51,-8 h -39 l 4,264 3,264 25,27 c 14,15 33,25 45,23 19,-3 20,-10 23,-282 z m 1432,-265 -1,-366 -58,65 -58,64 -7,96 c -3,52 -6,228 -6,390 v 295 l 65,-90 65,-89 z m -690,368 70,-91 V 3121 1863 l -57,5 c -32,2 -60,7 -63,9 -3,3 -8,413 -12,911 -4,499 -8,1102 -10,1340 -2,237 -2,432 -1,432 1,0 34,-41 73,-91 z M 1420,4368 v -183 l -118,-66 -117,-67 -3,147 c -4,220 -7,213 118,288 58,35 108,63 113,63 4,0 7,-82 7,-182 z m 725,-2285 -7,-123 h -94 -94 v 1234 1233 l 98,60 97,60 3,-1171 c 2,-644 0,-1226 -3,-1293 z m 2810,2247 57,-75 -6,-179 c -3,-99 -6,-254 -6,-345 l -1,-166 -64,70 -64,70 -1,365 c 0,310 2,362 14,350 7,-8 39,-49 71,-90 z m -3797,-112 -3,-183 -120,-67 c -66,-37 -123,-68 -127,-68 -9,0 -8,292 1,334 5,24 26,40 121,97 63,37 118,68 123,68 4,1 6,-81 5,-181 z M 1900,3178 V 1965 l -100,3 -100,3 v 1152 1152 l 93,57 c 50,31 95,57 100,57 4,1 7,-545 7,-1211 z m 2500,982 c 7,-15 36,-2298 29,-2304 -2,-2 -40,-1 -85,1 l -81,5 -6,112 c -4,61 -7,621 -7,1245 v 1134 l 71,-89 c 39,-49 74,-96 79,-104 z M 1667,2537 c -1,-314 -2,-57 -2,573 0,630 1,887 2,572 2,-314 2,-830 0,-1145 z M 873,3879 c -12,-11 -258,-139 -268,-139 -10,0 2,341 12,351 4,4 64,40 133,78 l 125,70 3,-176 c 1,-97 -1,-180 -5,-184 z m 753,-1907 c -3,-2 -48,-1 -100,3 l -96,7 v 357 c 0,196 3,677 7,1069 l 6,713 91,54 91,55 3,-1127 c 1,-619 0,-1128 -2,-1131 z m 3467,2176 55,-73 4,-338 c 2,-185 0,-336 -3,-335 -4,2 -35,34 -69,72 l -63,70 6,240 c 4,131 7,284 7,338 0,54 2,98 4,98 2,0 29,-33 59,-72 z m -580,-120 55,-68 6,-172 c 3,-95 9,-572 12,-1059 l 7,-886 -59,4 c -33,3 -64,6 -70,8 -7,2 -13,196 -17,642 -4,351 -10,861 -13,1133 -6,444 -5,493 9,480 8,-8 40,-45 70,-82 z M 1415,3068 c -4,-574 -8,-1053 -11,-1065 -2,-13 -9,-23 -15,-23 -6,0 -9,343 -7,1048 3,871 5,1052 17,1065 7,10 15,17 18,17 2,0 1,-469 -2,-1042 z m -835,827 v -175 l -130,-65 c -71,-36 -132,-65 -135,-65 -8,0 -4,301 4,323 6,15 230,153 254,156 4,1 7,-78 7,-174 z m 775,-1812 -7,-103 h -89 -89 l 1,483 c 1,265 5,714 8,997 l 6,514 85,48 85,47 3,-942 c 2,-518 0,-988 -3,-1044 z m 3879,1885 56,-71 v -326 -326 l -54,60 -53,60 -6,155 c -8,175 -9,520 -3,520 3,0 30,-32 60,-72 z m -4082,-1113 -7,-870 -27,-2 -28,-2 v 907 c 0,499 3,937 6,973 6,57 10,68 33,82 l 26,16 2,-117 c 2,-64 0,-508 -5,-987 z m 3561,414 c 4,-288 10,-728 14,-976 l 6,-453 h -56 c -44,0 -57,4 -61,18 -2,9 -8,478 -11,1042 l -7,1025 54,-66 55,-67 z M 1068,2858 c -2,-476 -6,-869 -10,-873 -3,-4 -43,-3 -87,1 l -81,7 v 291 c 0,160 3,571 7,912 l 6,621 81,44 81,44 3,-90 c 2,-49 2,-480 0,-957 z m 4307,935 55,-67 v -310 -310 l -60,59 -60,59 v 318 c 0,175 2,318 5,318 2,0 29,-30 60,-67 z M 877,3303 c -4,-273 -7,-680 -7,-905 v -408 h -45 -45 v 808 c 0,445 3,842 6,883 6,73 8,76 43,97 20,11 40,21 45,22 6,0 7,-199 3,-497 z m 2812,10 1,-263 h -35 -35 v 329 c 0,181 -3,342 -6,359 -6,29 -4,31 27,34 l 34,3 6,-100 c 4,-55 7,-218 8,-362 z m 81,376 c 0,-21 5,-41 10,-44 11,-7 14,-322 3,-488 l -6,-107 h -34 -33 v 367 367 l 30,-29 c 23,-22 30,-38 30,-66 z m -167,-275 c 4,-196 5,-360 1,-365 -3,-5 -25,-9 -50,-9 h -44 v 365 365 h 43 44 z m -183,-13 v -359 l -22,-6 c -57,-15 -54,-29 -62,271 -4,185 -3,280 4,287 5,5 10,28 10,51 0,40 39,115 60,115 6,0 10,-135 10,-359 z m 80,-1 v -360 h -35 -35 v 360 360 h 35 35 z m 1350,-668 v -903 l -47,3 -48,3 -6,420 c -4,231 -9,665 -13,965 l -7,545 60,-65 60,-65 z m -4092,-112 -3,-625 -77,-3 -78,-3 v 833 833 l 78,42 77,41 3,-246 c 1,-136 1,-528 0,-872 z m 4796,660 7,-305 -61,60 -60,59 v 309 308 l 53,-63 54,-63 z M 580,2898 c 0,-409 -3,-780 -7,-826 l -6,-83 -56,3 -56,3 -3,792 -2,793 57,29 c 32,17 61,30 66,31 4,0 7,-334 7,-742 z m 4416,52 c -3,-283 -6,-653 -6,-822 v -308 h -29 c -16,0 -43,3 -60,6 l -31,7 v 886 l 1,886 65,-70 66,-70 z M 424,3508 c 3,-29 6,-383 6,-785 v -733 h -67 -66 l 6,658 c 4,361 7,703 7,759 v 103 l 48,24 c 26,14 50,25 53,26 3,0 9,-24 13,-52 z m 5232,-54 34,-41 -2,-278 -3,-277 -57,54 -56,53 -6,300 -5,300 30,-35 c 17,-19 46,-54 65,-76 z m -5373,-744 -8,-715 -72,-3 -73,-3 v 718 l 1,718 77,36 77,36 3,-36 c 1,-20 -1,-358 -5,-751 z m 4837,64 c 5,-313 11,-658 13,-766 l 4,-198 h -31 c -17,0 -36,4 -42,8 -8,5 -13,237 -18,802 l -7,795 36,-36 36,-36 z m 666,530 24,-31 -2,-262 -3,-261 -52,46 -53,46 v 281 l 1,282 30,-35 c 16,-19 41,-49 55,-66 z m -632,-16 c 6,-27 25,-1471 19,-1477 -12,-15 -16,66 -24,561 -4,304 -10,640 -12,746 -1,105 1,192 5,192 4,0 10,-10 12,-22 z m 96,-789 v -696 l -24,4 -24,5 -6,221 c -3,122 -8,449 -12,727 l -6,505 36,-34 36,-35 z m 675,517 c 3,-78 5,-194 3,-258 l -3,-117 -52,46 -53,45 v 266 l 1,267 48,-54 49,-55 z m -635,-537 c 0,-446 -3,-679 -10,-679 -7,0 -10,235 -10,686 0,454 3,683 10,679 7,-4 10,-243 10,-686 z m 80,-41 v -638 h -30 -30 v 667 667 l 30,-29 30,-29 z m 628,632 52,-59 -2,-237 -3,-237 -52,49 -52,49 -3,248 c -2,136 -1,247 2,247 3,0 29,-27 58,-60 z m -561,-669 6,-613 -24,4 -24,3 -3,630 -2,630 20,-21 c 21,-20 21,-32 27,-633 z m 53,-28 c 0,-576 0,-583 -20,-583 -20,0 -20,7 -20,478 0,262 -3,536 -6,607 l -7,130 27,-24 26,-24 z m 660,310 v -224 l -28,20 c -58,41 -57,36 -60,290 l -2,236 45,-48 45,-49 z m -588,-343 c 1,-300 0,-546 -4,-547 -5,-2 -17,-3 -28,-3 -20,0 -20,7 -20,572 v 573 l 24,-25 24,-25 z m 703,243 c 4,-121 4,-213 -1,-213 -5,0 -29,17 -54,39 l -45,39 -3,223 -4,224 50,-50 50,-50 z m -651,-275 c 7,-513 6,-528 -12,-528 -18,0 -19,14 -25,257 -4,141 -7,387 -7,547 0,285 0,290 19,271 18,-19 19,-50 25,-547 z m 3958,314 c -3,-205 -3,-208 -28,-237 l -25,-30 7,200 c 5,168 9,206 25,238 11,20 20,37 22,37 1,0 1,-93 -1,-208 z m -3905,166 c 20,-22 21,-37 26,-515 l 6,-493 h -30 -29 v 243 c 0,134 -3,366 -7,515 -4,177 -3,272 4,272 5,0 19,-10 30,-22 z m 4081,-45 c -38,-88 -43,-91 -62,-37 -26,78 -24,84 33,84 h 50 z M 6370,2487 v -198 l -45,31 -45,31 -1,157 c 0,86 -2,184 -5,217 l -6,60 51,-50 51,-49 z m 3470,183 c 0,-73 -3,-90 -15,-90 -12,0 -15,14 -15,65 0,54 14,115 27,115 1,0 3,-40 3,-90 z M 5734,2248 c 6,-427 5,-478 -9,-478 -13,0 -15,20 -15,138 0,75 -3,297 -6,492 -6,316 -5,353 9,340 12,-13 16,-87 21,-492 z m 53,430 23,-21 v -444 -443 h -25 -25 v 218 c 0,119 -3,328 -7,465 -3,136 -2,247 2,247 5,0 19,-10 32,-22 z m 3711,-361 c -19,-32 -24,314 -6,358 11,26 13,6 16,-153 2,-134 -1,-188 -10,-205 z m -5808,-28 v -400 l -32,3 -33,3 -3,392 c -2,427 -6,398 51,402 16,1 17,-24 17,-400 z m 40,356 c 4,-5 11,-44 15,-85 4,-41 13,-82 21,-91 12,-13 14,-66 12,-295 l -3,-279 -26,-3 c -25,-3 -26,0 -32,50 -8,61 -7,763 0,733 3,-11 9,-24 13,-30 z m -307,-222 c 4,-141 7,-314 7,-385 v -128 h -33 -34 l -6,152 c -10,215 -9,396 2,403 5,3 13,34 16,70 4,36 11,68 16,71 5,3 9,21 9,40 0,19 4,34 8,34 5,0 12,-115 15,-257 z m 80,200 c 3,-32 6,-208 7,-390 l 1,-333 h -35 -35 l -3,383 c -2,210 -2,385 0,390 2,4 16,7 31,7 27,0 28,-3 34,-57 z m 107,-333 v -390 h -45 -45 v 390 390 h 45 45 z m 6190,340 c 0,-45 -2,-50 -25,-56 -14,-4 -28,-4 -31,-1 -4,4 47,106 54,107 1,0 2,-22 2,-50 z M 6470,2407 c 0,-148 -3,-187 -12,-181 -7,4 -28,19 -45,32 l -33,24 v 195 194 l 45,-38 44,-38 z m 3474,-134 c 5,-258 4,-285 -9,-256 -12,25 -16,98 -20,335 -4,267 -3,298 9,256 9,-32 15,-136 20,-335 z m -4097,-82 c 6,-400 5,-431 -10,-425 -16,6 -17,45 -17,442 0,300 3,433 10,426 7,-7 13,-168 17,-443 z m -818,7 c 1,-246 -2,-378 -9,-378 -7,0 -10,142 -9,408 1,224 5,394 9,377 4,-16 8,-200 9,-407 z m 4421,58 -20,-20 v 162 c 0,136 3,168 18,195 17,32 17,30 20,-142 2,-164 1,-176 -18,-195 z m 210,317 c 0,-7 -4,-13 -10,-13 -5,0 -10,12 -10,28 0,21 2,24 10,12 5,-8 10,-21 10,-27 z m -3753,-5 31,-33 6,-387 7,-388 h -41 -40 v 343 c -1,188 -3,377 -6,420 -4,43 -2,77 3,77 5,0 23,-15 40,-32 z m 630,-40 42,-43 3,-173 c 2,-94 2,-172 0,-172 -1,0 -21,14 -45,31 -36,26 -43,37 -49,77 -9,67 -9,322 0,322 4,0 27,-19 49,-42 z m 2868,-331 c -14,-20 -15,-7 -15,141 0,112 4,168 13,182 10,17 12,-7 15,-140 2,-131 0,-165 -13,-183 z m -3357,251 c 6,-8 11,-134 14,-356 l 3,-342 h -35 c -19,0 -40,4 -46,8 -8,5 -14,126 -19,386 l -7,379 39,-31 c 22,-17 45,-37 51,-44 z m 3937,-293 c 4,-234 3,-266 -9,-240 -10,22 -15,106 -19,315 -5,260 -4,281 9,240 11,-34 16,-114 19,-315 z m -3348,283 32,-33 7,-164 7,-164 -32,19 c -18,10 -37,25 -43,31 -13,16 -24,343 -11,343 5,0 23,-15 40,-32 z m 2721,-296 -23,-37 -3,148 c -2,140 -1,151 20,185 l 23,37 3,-148 c 2,-140 1,-151 -20,-185 z m 479,216 c 3,-83 3,-83 -13,-48 -21,45 -28,92 -20,126 13,49 29,9 33,-78 z m -107,2 c 52,-140 53,-140 24,-140 -23,0 -24,3 -26,68 l -2,67 -3,-67 c -3,-46 -8,-68 -18,-72 -13,-4 -15,14 -15,116 0,67 2,119 4,117 3,-3 19,-43 36,-89 z m 60,70 c 0,-11 -2,-20 -4,-20 -2,0 -6,9 -9,20 -3,11 -1,20 4,20 5,0 9,-9 9,-20 z m -112,-102 c -2,-78 -7,-113 -15,-116 -10,-3 -13,21 -13,96 0,102 5,132 21,132 6,0 8,-48 7,-112 z M 6077,2048 c -1,-73 -3,-16 -3,127 0,143 2,203 3,133 2,-70 2,-187 0,-260 z m 55,335 26,-28 4,-305 c 3,-334 8,-307 -52,-302 -20,2 -20,9 -20,332 0,182 4,330 8,330 5,0 20,-12 34,-27 z m 600,-30 38,-37 v -143 c 0,-79 -3,-143 -6,-143 -4,0 -22,9 -40,21 l -34,21 v 112 c 0,62 -3,134 -6,160 -4,25 -3,46 2,46 4,0 25,-17 46,-37 z m 2568,-277 -20,-20 v 140 c 0,117 3,144 18,164 17,24 17,21 20,-119 2,-134 1,-146 -18,-165 z m -3107,-38 c 3,-164 2,-298 -2,-298 -11,0 -21,215 -21,435 0,290 17,189 23,-137 z m 3839,-23 c 6,-247 5,-258 -11,-225 -13,29 -16,78 -18,300 -1,228 0,259 11,225 9,-26 15,-130 18,-300 z m -3762,91 c 0,-94 3,-215 7,-268 l 6,-98 h -35 -35 l -6,182 c -4,99 -7,232 -7,295 v 114 l 35,-27 35,-26 z m 580,12 v -138 l -35,17 -35,17 v 148 149 l 35,-28 35,-28 z m 2400,-92 -20,-20 v 133 c 0,114 3,137 18,154 16,18 17,14 20,-114 2,-122 1,-134 -18,-153 z m 315,-214 c -7,-377 -8,-383 -28,-380 -19,3 -20,9 -18,402 2,394 3,400 24,430 l 22,31 3,-50 c 2,-27 1,-222 -3,-433 z m -3231,298 c 3,-69 6,-182 6,-252 0,-128 0,-128 -23,-128 -24,0 -24,0 -30,173 -4,94 -7,216 -7,270 v 98 l 24,-18 c 21,-16 24,-27 30,-143 z m 2871,-129 c -13,-14 -15,-2 -15,115 0,91 4,134 13,143 10,10 13,-13 15,-115 2,-104 0,-131 -13,-143 z m -2300,228 35,-31 v -124 -124 l -34,16 c -31,15 -34,21 -40,77 -7,70 -8,217 -1,217 2,0 20,-14 40,-31 z m 3173,-314 c 0,-206 -1,-236 -13,-210 -9,21 -15,110 -19,290 l -6,260 19,-50 c 17,-44 19,-78 19,-290 z m -3710,77 c 1,-159 -1,-242 -8,-242 -6,0 -10,75 -10,214 0,117 -3,228 -7,246 -5,25 -3,32 8,28 11,-4 14,-50 17,-246 z m 3141,-39 c -2,-338 -8,-493 -20,-493 -5,0 -9,163 -9,373 0,354 3,397 27,397 2,0 3,-125 2,-277 z m -344,8 c -13,-14 -15,-3 -15,110 0,87 4,129 13,138 10,10 13,-12 15,-110 2,-100 0,-126 -13,-138 z m -2734,219 c 35,-23 37,-27 43,-99 3,-40 6,-134 6,-208 v -133 h -27 c -16,0 -38,3 -50,6 l -23,6 v 230 c 0,126 3,228 8,226 4,-1 23,-14 43,-28 z m 577,-29 c 20,-18 22,-27 22,-135 v -116 l -40,20 -40,20 v 126 c 0,137 -1,135 58,85 z m 2462,-332 c 0,-338 -1,-360 -17,-357 -17,3 -18,28 -21,337 -2,287 0,337 13,358 9,12 18,23 20,23 3,0 5,-162 5,-361 z m -330,238 c 0,-101 -2,-116 -20,-132 -20,-18 -20,-17 -20,94 0,104 10,151 32,151 5,0 8,-51 8,-113 z m -2568,29 c 15,-11 17,-35 18,-180 1,-92 0,-170 -3,-172 -2,-3 -23,-2 -46,2 l -41,7 v 194 194 l 28,-16 c 15,-9 35,-22 44,-29 z m 536,-111 c 1,-58 0,-105 -3,-105 -3,0 -19,7 -35,15 l -30,16 v 110 111 l 33,-21 32,-20 z m 1962,-89 -20,-20 v 108 c 0,90 3,113 18,129 16,18 17,15 20,-89 2,-97 1,-110 -18,-128 z m 350,-91 v -325 h -22 -21 l 7,312 c 6,282 12,338 32,338 2,0 4,-146 4,-325 z m 294,269 c 0,-21 -1,-85 -2,-141 -1,-61 -6,-103 -12,-103 -6,0 -10,55 -10,146 0,112 3,145 13,142 7,-3 12,-21 11,-44 z m 56,-99 c 0,-138 -1,-145 -20,-145 -19,0 -20,7 -20,145 0,138 1,145 20,145 19,0 20,-7 20,-145 z m 48,133 c 8,-8 12,-55 12,-145 v -133 h -25 c -24,0 -25,2 -25,68 0,93 11,222 19,222 4,0 12,-5 19,-12 z m -138,-138 c 0,-118 -2,-140 -15,-140 -12,0 -15,18 -15,103 0,90 13,177 25,177 3,0 5,-63 5,-140 z m 459,-205 v -230 l -18,45 c -15,37 -20,86 -25,290 l -6,245 25,-60 c 23,-58 24,-69 24,-290 z m -1111,98 c -11,-14 -13,-13 -19,8 -4,13 -7,57 -8,98 -1,58 3,79 17,94 16,18 17,15 20,-83 2,-71 -1,-107 -10,-117 z m 342,-84 c 0,-281 -1,-300 -17,-297 -17,3 -18,26 -21,282 -2,249 -1,281 14,298 10,10 19,18 21,18 1,0 3,-135 3,-301 z m -2724,270 34,-21 v -91 c 0,-51 3,-116 6,-144 l 7,-53 h -40 -40 l -7,53 c -8,68 -8,277 0,277 4,0 22,-9 40,-21 z m 514,1 c 25,-18 28,-26 35,-111 3,-50 5,-93 2,-95 -2,-2 -18,1 -35,7 l -32,11 -1,76 c -1,43 -3,89 -5,105 -3,32 0,33 36,7 z m -4763,-52 c -3,-7 -5,-2 -5,12 0,14 2,19 5,13 2,-7 2,-19 0,-25 z m 6581,-169 c -19,-12 -24,166 -6,189 11,13 13,-1 16,-83 2,-72 -1,-100 -10,-106 z m 342,-69 c 0,-263 0,-270 -20,-270 -19,0 -20,7 -20,248 0,208 2,251 16,270 8,12 17,22 20,22 2,0 4,-121 4,-270 z m -2550,93 v -123 h -35 -35 v 48 c 0,26 -3,91 -7,146 l -6,98 41,-23 42,-24 z m 501,109 c 5,-13 9,-54 9,-92 v -70 l -27,12 c -16,7 -31,14 -34,17 -4,3 -9,48 -12,98 l -4,93 29,-18 c 17,-9 34,-27 39,-40 z m 1675,-149 c -3,-7 -10,-13 -16,-13 -15,0 -13,177 3,183 9,3 13,-18 15,-76 2,-44 1,-86 -2,-94 z m 324,-77 v -243 l -27,5 -26,5 6,220 c 5,187 9,222 23,238 9,11 19,19 21,19 1,0 3,-110 3,-244 z m -2422,185 c 15,-18 17,-187 2,-196 -6,-4 -24,-4 -40,0 l -30,7 v 119 119 l 28,-17 c 15,-9 33,-23 40,-32 z m 527,-74 c 4,-37 5,-71 2,-74 -4,-3 -23,1 -44,10 l -38,15 -3,81 -3,82 40,-23 c 38,-22 40,-24 46,-91 z m 1530,-15 c -5,-37 -12,-55 -26,-62 -18,-10 -19,-7 -19,67 0,66 3,80 23,101 l 22,24 3,-39 c 2,-21 1,-62 -3,-91 z m 1284,-197 v -220 l -19,45 c -17,40 -19,72 -19,270 v 225 l 19,-50 c 18,-44 20,-75 19,-270 z m -3249,202 c 0,-23 3,-59 6,-79 l 7,-38 h -42 -41 v 100 99 l 35,-20 c 31,-19 35,-26 35,-62 z m 2270,-127 c 0,-133 -4,-210 -10,-210 -6,0 -10,74 -10,203 0,179 3,217 17,217 2,0 3,-94 3,-210 z m -372,39 c -25,-16 -28,-9 -28,58 0,49 5,71 18,86 16,19 17,16 20,-59 2,-55 -1,-80 -10,-85 z m -1417,134 c 27,-16 29,-21 29,-80 v -62 l -29,10 c -28,10 -30,13 -33,80 -2,38 -1,69 0,69 2,0 17,-8 33,-17 z m 1759,-183 c 0,-162 -2,-190 -15,-190 -13,0 -15,27 -15,183 0,101 3,187 7,190 19,20 23,-9 23,-183 z m 781,-90 c 3,-113 5,-207 3,-209 -2,-2 -10,-1 -19,2 -12,5 -15,29 -15,144 0,76 -2,183 -5,238 -5,100 -5,100 12,65 13,-28 18,-77 24,-240 z m -2992,172 c -1,-91 -6,-85 -12,15 -2,40 0,70 4,67 5,-3 9,-40 8,-82 z m 1814,-60 c -17,-12 -18,-8 -21,55 -2,56 0,70 15,81 17,12 18,8 21,-55 2,-56 0,-70 -15,-81 z m -1753,51 c 0,-61 -1,-63 -25,-63 -24,0 -25,2 -25,75 v 75 l 25,-12 c 23,-10 25,-17 25,-75 z m 490,2 v -54 l -30,10 c -29,11 -30,13 -30,70 v 60 l 30,-16 c 28,-14 30,-20 30,-70 z m 1620,-91 c 0,-162 -1,-175 -17,-172 -16,3 -18,20 -21,157 -2,133 0,156 14,172 10,11 19,19 21,19 1,0 3,-79 3,-176 z m -406,19 c -30,-22 -34,-15 -34,46 0,50 3,61 23,74 22,15 22,14 25,-46 2,-49 0,-64 -14,-74 z m -1626,49 c 3,-55 0,-58 -45,-46 -21,6 -23,13 -23,65 v 59 l 33,-13 c 30,-12 32,-17 35,-65 z m 482,-2 c 0,-32 -4,-40 -18,-40 -29,0 -42,21 -42,67 v 44 l 30,-16 c 26,-13 30,-21 30,-55 z m 1500,-80 c 0,-143 -1,-150 -20,-150 -19,0 -20,7 -20,140 0,122 2,140 18,149 9,6 18,11 20,11 1,0 2,-67 2,-150 z m 1148,-107 c 3,-179 3,-183 -17,-183 -21,0 -21,4 -20,218 1,210 1,216 17,182 13,-28 18,-73 20,-217 z m -1548,177 c 0,-33 -4,-60 -10,-60 -11,0 -14,103 -3,113 12,12 13,8 13,-53 z m -1492,-11 c 3,-35 3,-35 -33,-31 -34,4 -35,5 -35,48 v 44 l 33,-13 c 26,-11 33,-19 35,-48 z m 433,41 c 25,-14 28,-86 3,-76 -9,3 -20,6 -25,6 -5,0 -9,18 -9,40 0,43 2,45 31,30 z m 1027,-42 c -3,-46 -6,-53 -25,-56 -21,-3 -23,1 -23,39 0,28 6,46 18,55 29,22 33,16 30,-38 z m 382,-78 c 0,-109 -2,-130 -15,-130 -13,0 -15,20 -15,123 0,68 3,127 7,130 19,19 23,-4 23,-123 z m -1320,55 c 0,-25 -13,-31 -44,-19 -10,4 -16,18 -16,40 v 35 l 30,-16 c 21,-11 30,-23 30,-40 z m -466,35 c 16,-6 26,-17 26,-30 0,-16 -7,-20 -35,-20 -32,0 -35,2 -35,30 0,33 5,35 44,20 z m 1334,-81 c -23,-15 -28,-10 -28,31 0,27 5,42 18,49 15,8 17,5 20,-31 2,-26 -2,-44 -10,-49 z m 410,-22 c 3,-102 2,-107 -18,-107 -19,0 -20,6 -20,103 0,57 3,107 7,111 20,20 28,-9 31,-107 z m 1002,-97 c 0,-212 -18,-183 -25,40 -5,158 -4,172 9,145 11,-22 15,-70 16,-185 z m -1050,89 c 0,-90 -2,-100 -17,-97 -26,5 -30,167 -5,186 9,6 17,12 19,12 2,0 3,-45 3,-101 z m -1585,71 50,-18 -47,-1 c -55,-1 -78,6 -78,25 0,18 13,17 75,-6 z m 470,-15 90,-35 -63,6 c -107,11 -127,17 -130,42 -2,12 0,22 5,22 4,0 49,-16 98,-35 z m 715,1 c 0,-25 -5,-35 -20,-39 -17,-4 -20,0 -20,28 0,30 9,42 33,44 4,1 7,-14 7,-33 z m -50,-16 c 0,-25 -4,-30 -25,-30 -30,0 -35,33 -7,49 27,16 32,13 32,-19 z m 400,-50 c 0,-73 -2,-80 -20,-80 -18,0 -20,7 -20,70 0,55 3,71 18,79 9,6 18,11 20,11 1,0 2,-36 2,-80 z m -464,23 c -11,-11 -19,6 -11,24 8,17 8,17 12,0 3,-10 2,-21 -1,-24 z m 1274,-83 c 0,-73 -4,-120 -10,-120 -6,0 -10,47 -10,120 0,73 4,120 10,120 6,0 10,-47 10,-120 z m 60,-6 c 0,-124 0,-125 -22,-122 -22,3 -23,7 -26,126 l -3,122 h 26 25 z m 41,119 c 0,-5 3,-17 6,-28 11,-44 15,-225 5,-225 -39,0 -42,9 -42,136 0,104 2,124 15,124 8,0 15,-3 16,-7 z m 478,-185 c 1,-112 0,-118 -19,-118 -19,0 -20,6 -19,158 v 157 l 19,-40 c 15,-31 19,-65 19,-157 z m -1439,116 c 0,-57 -2,-65 -17,-62 -14,2 -19,15 -21,52 -4,57 2,76 23,76 12,0 15,-13 15,-66 z m -440,46 c 0,-5 -17,-10 -37,-9 -34,1 -35,2 -13,9 36,11 50,11 50,0 z m 1632,-153 c 5,-100 4,-107 -13,-107 -18,0 -19,9 -19,138 1,122 2,134 14,107 7,-17 15,-79 18,-138 z m -1242,103 c 0,-43 -3,-50 -20,-50 -17,0 -20,7 -20,44 0,40 7,53 33,55 4,1 7,-21 7,-49 z m 880,-56 c 0,-67 -4,-103 -10,-99 -16,10 -10,205 6,205 2,0 4,-48 4,-106 z m -930,53 c 0,-40 -5,-46 -31,-40 -22,6 -27,58 -6,66 29,12 37,6 37,-26 z m -5070,17 c 0,-11 -110,-144 -118,-143 -8,0 -122,134 -122,143 0,3 54,6 120,6 66,0 120,-3 120,-6 z m 5010,-29 c 0,-14 -4,-25 -10,-25 -5,0 -10,11 -10,25 0,14 5,25 10,25 6,0 10,-11 10,-25 z m -30,-5 c 0,-21 -16,-26 -39,-11 -18,11 -5,31 20,31 12,0 19,-7 19,-20 z m -60,0 c 0,-5 -17,-10 -37,-9 -31,0 -34,2 -18,9 28,12 55,12 55,0 z m -4832,-261 -3,-92 -73,86 -74,87 74,92 73,92 3,-86 c 1,-48 1,-128 0,-179 z m -328,166 72,-86 -41,-52 c -23,-29 -54,-68 -71,-87 l -29,-35 -1,120 c 0,66 -3,144 -6,173 -4,28 -4,52 -1,52 2,0 37,-38 77,-85 z m 6650,-57 c 0,-36 -4,-48 -15,-48 -12,0 -15,14 -15,63 0,34 -3,73 -5,87 -4,17 1,12 15,-15 11,-23 20,-61 20,-87 z m 240,5 c 0,-58 -3,-73 -15,-73 -12,0 -15,17 -15,98 1,89 2,95 15,72 9,-15 14,-54 15,-97 z m -204,-61 c -12,-11 -26,12 -26,41 l 1,32 15,-34 c 8,-19 12,-36 10,-39 z M 3655,1203 c 44,-53 82,-100 83,-104 2,-5 -73,-9 -167,-9 -94,0 -171,3 -171,6 0,9 161,204 168,203 4,0 43,-43 87,-96 z m 6129,49 c 6,-10 -21,-52 -34,-52 -5,0 -18,14 -30,30 l -21,30 h 40 c 22,0 42,-4 45,-8 z m -81,-47 28,-34 -28,-37 -28,-38 -7,45 c -9,61 -9,99 0,98 4,0 20,-16 35,-34 z m 127,-37 v -63 l -31,32 -32,31 24,31 c 13,16 27,30 32,30 4,1 7,-27 7,-61 z m -42,-66 25,-32 h -62 -62 l 28,35 c 15,19 32,34 37,32 5,-2 20,-17 34,-35 z m 12,-69 c 0,-5 -13,-23 -28,-42 l -28,-33 -33,41 -33,41 h 61 c 34,0 61,-3 61,-7 z M 3654,913 c -37,-54 -75,-106 -85,-117 -17,-18 -18,-18 -47,15 -16,19 -57,66 -90,104 -34,39 -62,76 -62,83 0,9 42,12 176,12 h 175 z m 6171,-31 c -3,-3 -17,6 -32,20 l -26,27 29,43 29,43 3,-64 c 2,-35 0,-66 -3,-69 z m -124,8 -31,-43 v 74 74 l 31,-31 31,-31 z M 3769,788 c 0,-79 -3,-166 -6,-194 l -6,-51 -73,82 -74,83 77,111 c 43,61 79,111 81,111 1,0 2,-64 1,-142 z m 6017,80 27,-33 -32,-3 c -17,-2 -43,-2 -56,0 l -25,3 22,32 c 13,18 26,33 30,33 3,0 19,-15 34,-32 z m -6339,-252 -62,-90 -2,39 c -2,22 -4,96 -5,164 l -3,123 67,-73 66,-73 z m 222,-96 91,-105 -171,-3 c -95,-1 -174,0 -176,2 -3,3 30,55 73,116 42,61 81,107 85,103 4,-4 48,-55 98,-113 z"
       id="path1"
       style="fill:#922c00;fill-opacity:0.24088542" />
  </g>
</svg>
